<!-- SVG icon for OrçaZen - will be converted to PNG -->
<svg width="512" height="512" viewBox="0 0 512 512" xmlns="http://www.w3.org/2000/svg">
  <!-- Background circle -->
  <circle cx="256" cy="256" r="256" fill="#3B82F6"/>
  
  <!-- Money symbol background -->
  <circle cx="256" cy="256" r="180" fill="#ffffff" opacity="0.9"/>
  
  <!-- Dollar sign -->
  <path d="M256 120 L256 392 M200 160 L280 160 Q320 160 320 200 Q320 240 280 240 L200 240 M200 272 L280 272 Q320 272 320 312 Q320 352 280 352 L200 352" 
        stroke="#3B82F6" stroke-width="20" fill="none" stroke-linecap="round"/>
  
  <!-- Financial chart elements -->
  <rect x="160" y="320" width="15" height="40" fill="#10B981" rx="2"/>
  <rect x="185" y="300" width="15" height="60" fill="#10B981" rx="2"/>
  <rect x="210" y="280" width="15" height="80" fill="#10B981" rx="2"/>
  
  <rect x="287" y="310" width="15" height="50" fill="#EF4444" rx="2"/>  
  <rect x="312" y="295" width="15" height="65" fill="#EF4444" rx="2"/>
  <rect x="337" y="285" width="15" height="75" fill="#EF4444" rx="2"/>
  
  <!-- Brazilian Real symbol -->
  <text x="256" y="450" text-anchor="middle" font-family="Arial, sans-serif" font-size="32" font-weight="bold" fill="#1F2937">R$</text>
</svg>